<?xml version="1.0" encoding="UTF-8" standalone="no"?>
<!DOCTYPE svg PUBLIC "-//W3C//DTD SVG 1.1//EN" "http://www.w3.org/Graphics/SVG/1.1/DTD/svg11.dtd">
<svg width="100%" height="100%" viewBox="0 0 1400 400" version="1.1" xmlns="http://www.w3.org/2000/svg" xmlns:xlink="http://www.w3.org/1999/xlink" xml:space="preserve" xmlns:serif="http://www.serif.com/" style="fill-rule:evenodd;clip-rule:evenodd;stroke-linejoin:round;stroke-miterlimit:2;">
    <g transform="matrix(1,0,0,1,-51.33,-9.9982)">
        <path d="M928.723,304.111L924.284,308.644C921.073,304.993 917.264,303.167 912.856,303.167C908.512,303.167 904.955,304.646 902.184,307.606C899.414,310.565 898.029,314.374 898.029,319.033C898.029,323.756 899.414,327.596 902.184,330.556C904.955,333.515 908.543,334.994 912.951,334.994C915.406,334.994 917.5,334.554 919.231,333.672C920.963,332.791 922.742,331.28 924.567,329.139L929.101,333.672C926.582,336.38 924.08,338.3 921.592,339.433C919.105,340.567 916.256,341.133 913.045,341.133C906.875,341.133 901.696,339.024 897.509,334.806C893.322,330.587 891.229,325.33 891.229,319.033C891.229,312.8 893.322,307.574 897.509,303.356C901.696,299.137 906.875,297.028 913.045,297.028C918.838,297.028 924.064,299.389 928.723,304.111Z" style="fill-rule:nonzero;"/>
        <path d="M969.712,297.028C975.63,297.028 980.652,299.169 984.776,303.45C988.9,307.731 990.962,312.926 990.962,319.033C990.962,325.267 988.884,330.508 984.729,334.758C980.573,339.008 975.473,341.133 969.429,341.133C963.258,341.133 958.111,338.993 953.987,334.711C949.863,330.43 947.801,325.141 947.801,318.844C947.801,312.674 949.91,307.495 954.129,303.308C958.347,299.121 963.542,297.028 969.712,297.028ZM969.617,303.167C965.147,303.167 961.527,304.631 958.756,307.558C955.986,310.486 954.601,314.28 954.601,318.939C954.601,323.661 955.97,327.518 958.709,330.508C961.448,333.499 965.021,334.994 969.429,334.994C973.71,334.994 977.236,333.499 980.006,330.508C982.777,327.518 984.162,323.693 984.162,319.033C984.162,314.437 982.792,310.644 980.054,307.653C977.315,304.662 973.836,303.167 969.617,303.167Z" style="fill-rule:nonzero;"/>
        <path d="M1039.88,304.583L1034.41,307.511C1032.52,304.489 1030.09,302.978 1027.13,302.978C1025.12,302.978 1023.47,303.529 1022.18,304.631C1020.88,305.732 1020.24,307.133 1020.24,308.833C1020.24,310.47 1020.84,311.824 1022.03,312.894C1022.73,313.398 1024.55,314.248 1027.51,315.444L1031.57,316.956C1034.91,318.278 1037.33,319.789 1038.85,321.489C1040.36,323.189 1041.11,325.298 1041.11,327.817C1041.11,331.594 1039.73,334.758 1036.96,337.308C1034.19,339.858 1030.76,341.133 1026.66,341.133C1019.74,341.133 1014.89,337.576 1012.12,330.461L1017.88,328.006C1019.14,330.65 1020.43,332.492 1021.75,333.531C1023.07,334.569 1024.77,335.089 1026.85,335.089C1029.06,335.089 1030.87,334.428 1032.28,333.106C1033.7,331.783 1034.41,330.146 1034.41,328.194C1034.41,326.62 1033.93,325.408 1032.99,324.558C1032.05,323.708 1030.06,322.685 1027.04,321.489L1022.51,319.694C1016.84,317.428 1014.01,313.902 1014.01,309.117C1014.01,305.654 1015.28,302.773 1017.83,300.475C1020.38,298.177 1023.55,297.028 1027.32,297.028C1032.8,297.028 1036.99,299.546 1039.88,304.583Z" style="fill-rule:nonzero;"/>
        <path d="M1065.38,298.161L1072.09,298.161L1072.09,302.883C1074.92,298.98 1078.86,297.028 1083.89,297.028C1089.37,297.028 1093.62,299.357 1096.64,304.017C1100.11,299.357 1104.7,297.028 1110.43,297.028C1116.1,297.028 1120.57,299.011 1123.85,302.978C1126.43,306.252 1127.72,311.037 1127.72,317.333L1127.72,340L1121.01,340L1121.01,318.183C1121.01,316.169 1120.9,314.406 1120.68,312.894C1120.46,311.383 1120.02,309.856 1119.36,308.314C1118.7,306.771 1117.67,305.591 1116.29,304.772C1114.9,303.954 1113.17,303.544 1111.1,303.544C1107.26,303.544 1104.36,304.867 1102.41,307.511C1100.77,309.589 1099.95,313.43 1099.95,319.033L1099.95,340L1093.25,340L1093.25,318.183C1093.25,316.169 1093.12,314.39 1092.87,312.847C1092.62,311.305 1092.17,309.762 1091.55,308.219C1090.92,306.677 1089.89,305.496 1088.48,304.678C1087.06,303.859 1085.31,303.45 1083.23,303.45C1079.46,303.45 1076.56,304.772 1074.55,307.417C1072.91,309.557 1072.09,313.43 1072.09,319.033L1072.09,340L1065.38,340L1065.38,298.161Z" style="fill-rule:nonzero;"/>
        <path d="M1192.41,319.883L1192.41,321.961L1158.98,321.961C1159.48,325.865 1161.01,329.013 1163.56,331.406C1166.11,333.798 1169.21,334.994 1172.86,334.994C1178.47,334.994 1182.72,332.539 1185.61,327.628L1191.66,330.178C1187.25,337.481 1181.02,341.133 1172.96,341.133C1166.98,341.133 1162,339.008 1158.03,334.758C1154.07,330.508 1152.08,325.235 1152.08,318.939C1152.08,312.831 1154.05,307.653 1157.99,303.403C1161.92,299.153 1166.72,297.028 1172.39,297.028C1178.25,297.028 1183.05,299.169 1186.79,303.45C1190.54,307.731 1192.41,313.209 1192.41,319.883ZM1158.98,316.2L1185.71,316.2C1185.14,312.17 1183.68,308.975 1181.32,306.614C1178.95,304.253 1176.01,303.072 1172.48,303.072C1168.96,303.072 1165.98,304.253 1163.56,306.614C1161.13,308.975 1159.61,312.17 1158.98,316.2Z" style="fill-rule:nonzero;"/>
        <path d="M1230.66,304.206L1223.67,304.206L1223.67,327.439C1223.67,332.098 1225.25,334.428 1228.39,334.428C1229.21,334.428 1230.16,334.239 1231.23,333.861L1231.23,340C1229.72,340.441 1228.33,340.661 1227.07,340.661C1220.34,340.661 1216.97,336.254 1216.97,327.439L1216.97,304.206L1212.25,304.206L1212.25,298.161L1216.97,298.161L1216.97,288.244L1223.67,285.6L1223.67,298.161L1230.66,298.161L1230.66,304.206Z" style="fill-rule:nonzero;"/>
        <path d="M1254.18,298.161L1260.88,298.161L1260.88,340L1254.18,340L1254.18,298.161ZM1254.18,280.783C1255.12,279.839 1256.26,279.367 1257.58,279.367C1258.9,279.367 1260.03,279.839 1260.98,280.783C1261.92,281.728 1262.39,282.861 1262.39,284.183C1262.39,285.506 1261.92,286.639 1260.98,287.583C1260.03,288.528 1258.9,289 1257.58,289C1256.26,289 1255.12,288.528 1254.18,287.583C1253.23,286.639 1252.76,285.474 1252.76,284.089C1252.76,282.83 1253.23,281.728 1254.18,280.783Z" style="fill-rule:nonzero;"/>
        <path d="M1322.84,304.111L1318.4,308.644C1315.19,304.993 1311.38,303.167 1306.97,303.167C1302.63,303.167 1299.07,304.646 1296.3,307.606C1293.53,310.565 1292.14,314.374 1292.14,319.033C1292.14,323.756 1293.53,327.596 1296.3,330.556C1299.07,333.515 1302.66,334.994 1307.07,334.994C1309.52,334.994 1311.62,334.554 1313.35,333.672C1315.08,332.791 1316.86,331.28 1318.68,329.139L1323.22,333.672C1320.7,336.38 1318.2,338.3 1315.71,339.433C1313.22,340.567 1310.37,341.133 1307.16,341.133C1300.99,341.133 1295.81,339.024 1291.63,334.806C1287.44,330.587 1285.35,325.33 1285.35,319.033C1285.35,312.8 1287.44,307.574 1291.63,303.356C1295.81,299.137 1300.99,297.028 1307.16,297.028C1312.95,297.028 1318.18,299.389 1322.84,304.111Z" style="fill-rule:nonzero;"/>
        <path d="M1371.1,304.583L1365.62,307.511C1363.73,304.489 1361.31,302.978 1358.35,302.978C1356.34,302.978 1354.68,303.529 1353.39,304.631C1352.1,305.732 1351.46,307.133 1351.46,308.833C1351.46,310.47 1352.06,311.824 1353.25,312.894C1353.94,313.398 1355.77,314.248 1358.73,315.444L1362.79,316.956C1366.13,318.278 1368.55,319.789 1370.06,321.489C1371.57,323.189 1372.33,325.298 1372.33,327.817C1372.33,331.594 1370.94,334.758 1368.17,337.308C1365.4,339.858 1361.97,341.133 1357.88,341.133C1350.95,341.133 1346.11,337.576 1343.33,330.461L1349.1,328.006C1350.36,330.65 1351.64,332.492 1352.97,333.531C1354.29,334.569 1355.99,335.089 1358.07,335.089C1360.27,335.089 1362.08,334.428 1363.5,333.106C1364.91,331.783 1365.62,330.146 1365.62,328.194C1365.62,326.62 1365.15,325.408 1364.21,324.558C1363.26,323.708 1361.28,322.685 1358.26,321.489L1353.72,319.694C1348.06,317.428 1345.22,313.902 1345.22,309.117C1345.22,305.654 1346.5,302.773 1349.05,300.475C1351.6,298.177 1354.76,297.028 1358.54,297.028C1364.02,297.028 1368.2,299.546 1371.1,304.583Z" style="fill-rule:nonzero;"/>
    </g>
    <g transform="matrix(6.31923,0,0,6.31447,-201.753,-22.8002)">
        <g>
            <path d="M47.618,56.807L44.416,56.807L44.416,19.764L47.618,18.148L47.618,22.322C50.058,19.12 53.223,17.518 57.111,17.518C60.695,17.518 63.726,18.805 66.204,21.379C68.682,23.952 69.921,27.107 69.921,30.843C69.921,34.541 68.682,37.677 66.204,40.251C63.726,42.824 60.695,44.111 57.111,44.111C53.375,44.111 50.211,42.51 47.618,39.307L47.618,56.807ZM57.111,20.492C54.328,20.492 52.041,21.445 50.249,23.352C48.457,25.258 47.561,27.698 47.561,30.672C47.561,33.798 48.428,36.324 50.163,38.249C51.898,40.174 54.176,41.137 56.997,41.137C59.818,41.137 62.125,40.165 63.917,38.22C65.709,36.276 66.605,33.798 66.605,30.786C66.605,27.812 65.709,25.353 63.917,23.409C62.125,21.464 59.856,20.492 57.111,20.492Z" style="fill:rgb(184,30,55);fill-rule:nonzero;"/>
            <path d="M95.999,18.148L99.202,19.764L99.202,43.482L95.999,43.482L95.999,39.307C94.589,40.985 93.14,42.205 91.653,42.967C90.166,43.73 88.431,44.111 86.449,44.111C82.903,44.111 79.891,42.815 77.413,40.222C74.935,37.63 73.696,34.484 73.696,30.786C73.696,27.088 74.935,23.952 77.413,21.379C79.891,18.805 82.922,17.518 86.506,17.518C90.166,17.518 93.33,19.12 95.999,22.322L95.999,18.148ZM86.792,20.492C83.933,20.492 81.588,21.436 79.758,23.323C77.928,25.21 77.013,27.641 77.013,30.614C77.013,33.741 77.909,36.276 79.701,38.22C81.492,40.165 83.799,41.137 86.62,41.137C89.403,41.137 91.681,40.165 93.454,38.22C95.227,36.276 96.114,33.798 96.114,30.786C96.114,27.812 95.237,25.353 93.483,23.409C91.729,21.464 89.499,20.492 86.792,20.492Z" style="fill:rgb(184,30,55);fill-rule:nonzero;"/>
            <path d="M106.179,19.764L109.381,18.148L109.381,21.636C111.326,18.891 114.051,17.518 117.559,17.518C119.427,17.518 121.143,17.928 122.706,18.748C124.269,19.568 125.451,20.702 126.252,22.151C127.243,23.904 127.738,26.44 127.738,29.757L127.738,43.482L124.536,43.482L124.536,30.214C124.536,27.317 124.155,25.163 123.392,23.752C122.21,21.655 120.152,20.607 117.216,20.607C115.767,20.607 114.452,20.912 113.27,21.522C112.088,22.132 111.192,22.97 110.582,24.038C109.781,25.449 109.381,27.698 109.381,30.786L109.381,43.482L106.179,43.482L106.179,19.764Z" style="fill:rgb(184,30,55);fill-rule:nonzero;"/>
            <g transform="matrix(0.158247,0,0,0.158366,36.0286,7.87129)">
                <path d="M671.218,239.64C655.005,235.412 640.72,227.193 628.36,214.984C609.453,196.306 600,173.133 600,145.462C600,118.346 609.599,95.656 628.796,77.394C647.994,59.131 671.846,50 700.351,50C715.832,50 729.999,53.125 742.85,59.375L761.556,40.67L761.614,40.612C766.556,35.726 774.168,35.376 778.636,39.845C783.121,44.33 782.752,51.984 777.811,56.925L762.51,72.225C764.672,74.045 766.786,75.975 768.852,78.016C787.759,96.694 797.212,119.452 797.212,146.292C797.212,173.409 787.686,196.306 768.634,214.984C750.054,233.198 727.394,242.531 700.656,242.983C699.331,245.191 699.665,247.791 700.814,250.374C708.655,253.111 715.75,257.617 722.101,263.891C733.367,275.02 739,288.581 739,304.574C739,320.732 733.324,334.375 721.971,345.504C710.619,356.633 696.71,362.198 680.245,362.198C663.607,362.198 649.654,356.633 638.389,345.504C627.123,334.375 621.49,320.567 621.49,304.08C621.49,287.922 627.21,274.402 638.649,263.52C646.174,256.361 654.9,251.557 664.825,249.109C668.294,246.926 671.37,243.804 671.218,239.64ZM680.765,260.058C667.593,260.058 656.934,264.18 648.788,272.424C640.642,280.667 636.569,291.467 636.569,304.822C636.569,317.847 640.642,328.522 648.788,336.848C656.934,345.175 667.42,349.338 680.245,349.338C693.071,349.338 703.556,345.133 711.702,336.725C719.848,328.316 723.921,317.599 723.921,304.574C723.921,291.714 719.848,281.08 711.702,272.671C703.556,264.262 693.244,260.058 680.765,260.058ZM699.479,71.583C677.372,71.583 659.484,78.5 645.813,92.335C632.142,106.171 625.306,124.295 625.306,146.708C625.306,168.567 632.142,186.484 645.813,200.457C659.484,214.43 677.081,221.417 698.606,221.417C720.131,221.417 737.729,214.361 751.4,200.249C765.071,186.138 771.906,168.152 771.906,146.292C771.906,124.71 765.071,106.862 751.4,92.751C737.729,78.639 720.422,71.583 699.479,71.583Z" style="fill:rgb(196,162,93);fill-rule:nonzero;"/>
            </g>
            <g transform="matrix(1,0,0,1,0.985651,0)">
                <rect x="164.453" y="5.337" width="3.203" height="38.144" style="fill:rgb(184,30,55);"/>
            </g>
            <g transform="matrix(1,0,0,1,0.985651,0)">
                <path d="M186.299,17.518C189.806,17.518 192.799,18.805 195.277,21.379C197.755,23.952 198.995,27.088 198.995,30.786C198.995,34.522 197.746,37.677 195.249,40.251C192.752,42.824 189.692,44.111 186.07,44.111C182.41,44.111 179.341,42.824 176.863,40.251C174.385,37.677 173.146,34.484 173.146,30.672C173.146,26.935 174.404,23.809 176.92,21.293C179.436,18.777 182.563,17.518 186.299,17.518ZM186.184,20.492C183.287,20.492 180.942,21.445 179.15,23.352C177.358,25.258 176.462,27.755 176.462,30.843C176.462,33.855 177.358,36.324 179.15,38.249C180.942,40.174 183.249,41.137 186.07,41.137C188.891,41.137 191.198,40.165 192.99,38.22C194.782,36.276 195.678,33.798 195.678,30.786C195.678,27.812 194.782,25.353 192.99,23.409C191.198,21.464 188.929,20.492 186.184,20.492Z" style="fill:rgb(184,30,55);fill-rule:nonzero;"/>
            </g>
            <g transform="matrix(1,0,0,1,0.985651,0)">
                <path d="M218.553,21.693L215.922,23.066C214.664,21.274 213.12,20.378 211.29,20.378C209.879,20.378 208.736,20.759 207.859,21.522C206.982,22.284 206.543,23.256 206.543,24.438C206.543,25.544 206.925,26.421 207.687,27.069C208.106,27.488 209.326,28.098 211.347,28.899L213.863,29.871C215.846,30.634 217.276,31.52 218.152,32.53C219.029,33.541 219.468,34.789 219.468,36.276C219.468,38.525 218.658,40.394 217.037,41.88C215.417,43.367 213.387,44.111 210.947,44.111C207.058,44.111 204.237,42.09 202.483,38.049L205.285,36.905C206.124,38.468 206.972,39.574 207.83,40.222C208.688,40.87 209.765,41.194 211.061,41.194C212.548,41.194 213.778,40.746 214.75,39.85C215.722,38.954 216.208,37.839 216.208,36.505C216.208,35.399 215.827,34.503 215.064,33.817C214.531,33.321 213.291,32.692 211.347,31.93L208.545,30.843C205.19,29.547 203.512,27.469 203.512,24.61C203.512,22.589 204.256,20.902 205.743,19.549C207.23,18.195 209.098,17.518 211.347,17.518C214.435,17.518 216.837,18.91 218.553,21.693Z" style="fill:rgb(184,30,55);fill-rule:nonzero;"/>
            </g>
            <g transform="matrix(1,0,0,1,0.985651,0)">
                <path d="M239.083,21.693L236.453,23.066C235.194,21.274 233.65,20.378 231.82,20.378C230.41,20.378 229.266,20.759 228.389,21.522C227.512,22.284 227.074,23.256 227.074,24.438C227.074,25.544 227.455,26.421 228.218,27.069C228.637,27.488 229.857,28.098 231.878,28.899L234.394,29.871C236.376,30.634 237.806,31.52 238.683,32.53C239.56,33.541 239.998,34.789 239.998,36.276C239.998,38.525 239.188,40.394 237.568,41.88C235.947,43.367 233.917,44.111 231.477,44.111C227.588,44.111 224.767,42.09 223.013,38.049L225.816,36.905C226.654,38.468 227.503,39.574 228.36,40.222C229.218,40.87 230.295,41.194 231.592,41.194C233.078,41.194 234.308,40.746 235.28,39.85C236.252,38.954 236.739,37.839 236.739,36.505C236.739,35.399 236.357,34.503 235.595,33.817C235.061,33.321 233.822,32.692 231.878,31.93L229.075,30.843C225.72,29.547 224.043,27.469 224.043,24.61C224.043,22.589 224.786,20.902 226.273,19.549C227.76,18.195 229.628,17.518 231.878,17.518C234.966,17.518 237.368,18.91 239.083,21.693Z" style="fill:rgb(184,30,55);fill-rule:nonzero;"/>
            </g>
        </g>
    </g>
</svg>
