<?xml version="1.0" encoding="UTF-8" standalone="no"?>
<!DOCTYPE svg PUBLIC "-//W3C//DTD SVG 1.1//EN" "http://www.w3.org/Graphics/SVG/1.1/DTD/svg11.dtd">
<svg width="100%" height="100%" viewBox="0 0 2400 4000" version="1.1" xmlns="http://www.w3.org/2000/svg" xmlns:xlink="http://www.w3.org/1999/xlink" xml:space="preserve" xmlns:serif="http://www.serif.com/" style="fill-rule:evenodd;clip-rule:evenodd;stroke-linejoin:round;stroke-miterlimit:2;">
    <g transform="matrix(28.1576,0,0,28.1576,-2048.75,-2148.5)">
        <g transform="matrix(1,0,0,1,126.167,195.83)">
            <path d="M0,16.007C0,16.703 -0.233,17.308 -1.097,17.611L-1.097,18.337L5.857,18.337C8.867,18.337 11.854,17.308 13.767,14.101C14.981,12.073 15.564,9.743 15.564,7.171C15.564,4.448 15.167,1.755 13.487,-0.091C11.807,-1.906 9.8,-2.33 7.677,-2.33C5.624,-2.33 4.107,-2.179 2.893,-2.179C1.68,-2.179 0.14,-2.239 -2.007,-2.33L-2.007,-1.029C-0.14,-0.817 -0.047,-0.575 0,1.301L0,16.007ZM3.29,-0.484C4.083,-0.545 4.83,-0.666 5.554,-0.666C7.257,-0.666 9.077,-0.424 10.407,1.15C11.737,2.754 12.087,5.537 12.087,7.746C12.087,10.076 11.597,12.86 10.384,14.615C9.03,16.521 7.21,16.763 5.32,16.763C4.667,16.763 3.99,16.763 3.29,16.612L3.29,-0.484" style="stroke:white;stroke-width:0.05px;"/>
        </g>
        <g transform="matrix(0.0355144,0,0,0.0355144,71.749,76.3027)">
            <path d="M948.404,3426.99L948.404,3784.84L946.799,3794.47L945.194,3802.5L940.379,3810.52L935.564,3816.91L927.539,3823.33L919.514,3828.15L909.884,3829.75L897.044,3831.36L897.044,3881.11L1071.96,3881.11L1071.96,3834.57L1068.75,3834.57L1060.72,3836.17L1049.49,3836.17L1036.65,3834.57L1023.81,3829.75L1012.6,3821.73L1004.58,3808.92L1001.37,3791.26L1001.37,3783.24L999.763,3757.56L999.763,3715.83L998.158,3654.87L1150.58,3654.87L1150.58,3656.47L1153.79,3659.68L1158.6,3666.1L1163.41,3674.13L1171.44,3683.73L1187.49,3706.2L1195.52,3719.04L1205.14,3731.88L1213.17,3743.11L1221.19,3755.95L1237.25,3775.21L1243.66,3783.24L1248.48,3789.66L1250.08,3794.47L1254.9,3799.29L1258.11,3805.71L1259.71,3813.7L1259.71,3823.33L1256.5,3828.15L1251.69,3831.36L1245.27,3832.96L1209.96,3832.96L1205.14,3834.57L1203.54,3834.57L1203.54,3881.11L1485.96,3881.11L1485.96,3834.57L1484.36,3832.96L1465.1,3832.96L1455.47,3829.75L1449.05,3828.15L1429.79,3818.52L1421.76,3812.1L1415.34,3805.71L1407.35,3799.29L1400.92,3791.26L1052.7,3316.27L887.415,3316.27L887.415,3362.82L890.625,3362.82L897.044,3361.21L906.674,3362.82L917.909,3366.03L929.144,3372.45L938.774,3383.68L945.194,3401.34L948.404,3426.99ZM998.158,3609.93L998.158,3449.46L1116.9,3609.93L998.158,3609.93Z" style="stroke:white;stroke-width:1.5px;"/>
        </g>
        <g transform="matrix(1,0,0,1,102.188,213.825)">
            <path d="M0,-19.832L-0.171,-19.832L-0.342,-19.889L-0.57,-19.889L-0.855,-19.946L-1.197,-19.946L-2.393,-20.117L-3.362,-20.117L-3.818,-20.174L-6.041,-20.174L-6.497,-20.117L-7.066,-20.117L-7.636,-20.003L-8.32,-19.946L-9.574,-19.604L-10.201,-19.376L-10.771,-19.091L-11.341,-18.749L-11.853,-18.293L-12.309,-17.78L-12.651,-17.154L-12.936,-16.47L-13.107,-15.672L-13.164,-14.703L-13.107,-13.791L-12.936,-12.993L-12.708,-12.31L-12.423,-11.683L-12.024,-11.17L-11.569,-10.771L-11.056,-10.372L-10.6,-10.144L-10.087,-9.859L-9.574,-9.688L-9.061,-9.574L-8.605,-9.46L-8.206,-9.403L-7.864,-9.346L-7.579,-9.289L-7.351,-9.289L-7.18,-9.232L-6.611,-9.118L-6.269,-9.004L-5.87,-8.947L-5.471,-8.833L-5.072,-8.662L-4.616,-8.491L-4.217,-8.264L-3.875,-7.979L-3.476,-7.694L-3.191,-7.295L-2.963,-6.896L-2.735,-6.44L-2.621,-5.87L-2.621,-5.243L-2.678,-4.559L-2.906,-3.533L-3.134,-3.135L-3.362,-2.793L-3.59,-2.508L-3.875,-2.223L-4.217,-2.052L-4.502,-1.881L-5.072,-1.653L-5.414,-1.596L-5.642,-1.596L-5.927,-1.539L-6.725,-1.539L-7.01,-1.596L-7.351,-1.596L-7.693,-1.653L-8.092,-1.767L-8.491,-1.938L-8.833,-2.109L-9.232,-2.337L-9.916,-3.021L-10.201,-3.476L-10.486,-4.046L-10.657,-4.673L-10.771,-5.357L-10.828,-6.155L-12.822,-6.155L-12.822,-0.855L-12.765,-0.798L-12.651,-0.798L-12.48,-0.741L-12.252,-0.627L-11.91,-0.57L-11.569,-0.456L-11.17,-0.342L-10.714,-0.228L-9.688,-0L-9.175,0.057L-8.605,0.171L-6.896,0.342L-5.699,0.342L-5.072,0.285L-4.388,0.171L-3.761,0.057L-2.393,-0.399L-1.767,-0.684L-1.14,-1.083L-0.57,-1.539L-0.057,-2.052L0.456,-2.622L0.855,-3.306L1.197,-4.046L1.425,-4.901L1.596,-5.87L1.653,-6.896L1.596,-7.808L1.482,-8.548L1.311,-9.289L0.741,-10.429L0.399,-10.885L0,-11.284L-0.399,-11.626L-0.798,-11.911L-1.254,-12.139L-2.052,-12.481L-2.735,-12.709L-3.02,-12.766L-3.191,-12.822L-3.761,-12.936L-4.16,-13.05L-4.559,-13.107L-5.015,-13.164L-5.927,-13.392L-6.383,-13.563L-6.839,-13.677L-7.294,-13.905L-7.693,-14.076L-8.035,-14.304L-8.32,-14.589L-8.548,-14.931L-8.719,-15.273L-8.776,-15.672L-8.776,-16.071L-8.719,-16.47L-8.662,-16.812L-8.32,-17.381L-8.092,-17.666L-7.864,-17.894L-7.636,-18.065L-7.066,-18.407L-6.782,-18.521L-6.497,-18.578L-6.212,-18.692L-5.927,-18.749L-4.958,-18.749L-4.673,-18.692L-3.818,-18.35L-3.533,-18.179L-2.963,-17.723L-2.735,-17.439L-2.507,-17.097L-2.28,-16.698L-2.109,-16.242L-1.995,-15.786L-1.938,-15.216L-1.881,-14.589L0,-14.589L0,-19.832" style="stroke:white;stroke-width:0.05px;"/>
        </g>
    </g>
    <g transform="matrix(1,0,0,1,-216.068,100)">
        <g transform="matrix(1,0,0,1,2.00048,0)">
            <g transform="matrix(1,0,0,1,88.9737,0)">
                <path d="M1324.97,3133.91C1324.06,3133.97 1323.13,3134 1322.18,3134C1291.5,3134.13 1285.6,3105 1285.6,3105L1285.6,2150L1279.93,2150L1279.93,959.299C1274.59,867.537 1248.83,780.564 1195.78,700C1265.7,497.746 1324.97,-0 1324.97,-0C1324.97,-0 1384.24,497.746 1454.15,700C1401.1,780.564 1375.35,867.537 1370,959.299L1370,2150L1364.33,2150L1364.33,3105C1364.33,3105 1358.43,3134.13 1327.75,3134C1326.8,3134 1325.87,3133.97 1324.97,3133.91Z" style="fill:white;stroke:black;stroke-width:8.33px;stroke-linecap:round;stroke-miterlimit:1.5;"/>
            </g>
            <g transform="matrix(0.898537,-0.438899,0.438899,0.898537,-462.345,740.519)">
                <path d="M1324.97,3133.91C1324.06,3133.97 1323.13,3134 1322.18,3134C1291.5,3134.13 1285.6,3105 1285.6,3105L1285.6,2150L1279.93,2150L1279.93,959.299C1274.59,867.537 1248.83,780.564 1195.78,700C1265.7,497.746 1324.97,-0 1324.97,-0C1324.97,-0 1384.24,497.746 1454.15,700C1401.1,780.564 1375.35,867.537 1370,959.299L1370,2150L1364.33,2150L1364.33,3105C1364.33,3105 1358.43,3134.13 1327.75,3134C1326.8,3134 1325.87,3133.97 1324.97,3133.91Z" style="fill:white;stroke:black;stroke-width:8.33px;stroke-linecap:round;stroke-miterlimit:1.5;"/>
            </g>
            <g transform="matrix(0.898617,0.438733,-0.438733,0.898617,912.798,-422.44)">
                <path d="M1324.97,3133.91C1324.06,3133.97 1323.13,3134 1322.18,3134C1291.5,3134.13 1285.6,3105 1285.6,3105L1285.6,2150L1279.93,2150L1279.93,959.299C1274.59,867.537 1248.83,780.564 1195.78,700C1265.7,497.746 1324.97,-0 1324.97,-0C1324.97,-0 1384.24,497.746 1454.15,700C1401.1,780.564 1375.35,867.537 1370,959.299L1370,2150L1364.33,2150L1364.33,3105C1364.33,3105 1358.43,3134.13 1327.75,3134C1326.8,3134 1325.87,3133.97 1324.97,3133.91Z" style="fill:white;stroke:black;stroke-width:8.33px;stroke-linecap:round;stroke-miterlimit:1.5;"/>
            </g>
        </g>
        <g transform="matrix(1,0,0,1,85.317,0)">
            <path d="M1360,1045.22C1556.43,1131.68 1758.71,1107.29 1965.5,997L2052.5,1073C2003.25,1128.7 1967.64,1191.78 1941.5,1260C1960.81,1633.22 1967.87,1874.83 1961.5,1972C1961.5,1972 1937.86,2131.66 1741.5,2300C1613.41,2409.81 1335,2553 1335,2553L1326.5,2553C1326.5,2553 1048.09,2409.81 920,2300C723.637,2131.66 700,1972 700,1972C693.626,1874.83 700.691,1633.22 720,1260C693.862,1191.78 658.247,1128.7 609,1073L696,997C902.786,1107.29 1105.07,1131.68 1301.51,1045.22L1301.5,1045C1307.14,1041.98 1312.71,1039.83 1318.22,1038.54C1322.31,1037.56 1326.44,1037.07 1330.61,1037.06L1330.89,1037.06C1335.06,1037.07 1339.19,1037.56 1343.28,1038.54C1348.79,1039.83 1354.36,1041.98 1360,1045L1360,1045.22Z" style="fill:white;stroke:black;stroke-width:8.33px;stroke-linecap:round;stroke-miterlimit:1.5;"/>
        </g>
        <g transform="matrix(1,0,0,1,2.37744,0)">
            <path d="M1410.89,2458.76C1292.58,2406.36 1186.08,2346.47 1090,2280C960.545,2184.09 877.649,2052.95 850,1880C850,1880 847.907,1773.29 850,1720C854,1618.17 870.057,1667.63 874,1269C874.006,1268.36 873.989,1267.32 873.638,1266C857.933,1206.81 818.211,1148.5 807.162,1120C804.15,1112.23 805.207,1100.46 807.347,1095C809.152,1090.39 820,1087.25 820,1087.25C1015.78,1191.16 1213.69,1195.88 1413.69,1103L1414.86,1103.54C1614.48,1195.86 1811.99,1190.95 2007.38,1087.25C2007.38,1087.25 2018.23,1090.4 2020.03,1095C2022.17,1100.46 2023.23,1112.23 2020.22,1120C2009.17,1148.5 1969.45,1206.81 1953.74,1266C1953.39,1267.32 1953.38,1268.36 1953.38,1269C1957.33,1667.63 1973.38,1618.17 1977.38,1720C1979.47,1773.29 1977.38,1880 1977.38,1880C1949.73,2052.95 1866.84,2184.09 1737.38,2280C1640.55,2346.99 1533.13,2407.3 1413.69,2460L1410.89,2458.76Z"/>
        </g>
        <g transform="matrix(1,0,0,1,206.194,-100)">
            <path d="M1209.1,2197.01C1176.29,2197.42 1137.63,2203 1121.12,2189C1064.64,2170.33 1062.11,2115.59 1002.12,1940C1002.12,1940 888.847,1876.06 885.266,1857.08C874.704,1746.86 875.996,1636.49 885.124,1526C849.934,1527.94 852.188,1520.25 819.124,1484C819.124,1484 813.158,1475.23 819.124,1468C881.187,1433.27 944.567,1434.53 1009.12,1468C1065.9,1437.04 1123.99,1415.51 1183.87,1404C1195.62,1401.74 1195.67,1401.02 1209.87,1401C1224.77,1400.98 1224.77,1401.73 1235.87,1404C1293.48,1415.76 1355.9,1438.16 1410.62,1468C1475.18,1434.53 1538.56,1433.27 1600.62,1468C1606.59,1475.23 1600.62,1484 1600.62,1484C1567.56,1520.25 1569.81,1527.94 1534.62,1526C1543.75,1636.49 1545.04,1746.86 1534.48,1857.08C1530.9,1876.06 1417.62,1940 1417.62,1940C1357.64,2115.59 1355.11,2170.33 1298.62,2189C1281.99,2203.11 1242.85,2197.33 1209.87,2197L1209.1,2197.01ZM1174.6,1836.33L1253.56,1884.16L1322.46,1823.39L1301.28,1912.59L1379.1,1959.62L1289,1967.43L1267.82,2056.63L1232.21,1972.39L1142.11,1980.2L1210.22,1920.57L1174.6,1836.33ZM1354.87,1540C1355.94,1543.71 1063.81,1543.71 1064.87,1540C1067.85,1529.67 1126.24,1481.42 1209.87,1485L1210.36,1484.98C1293.74,1481.61 1351.9,1529.69 1354.87,1540Z" style="fill:white;"/>
        </g>
        <g transform="matrix(1,0,0,1,216.067,-100)">
            <path d="M1200,3106.27C851.419,3106.27 545.766,2978.23 398.001,2790C393.423,2784.17 373.826,2762.58 365.033,2748.92C314.673,2670.68 225.033,2498.92 225.033,2498.92C149.813,2330.1 120.662,2092.57 127.748,1801C127.845,1796.98 126.88,1781.56 126.207,1778C112.775,1706.86 77.438,1666.24 15.033,1663.35L225.033,1562.91C328.22,1551.12 373.548,1613.07 403.205,1695C405.215,1700.55 409.168,1718.47 409.423,1730C411.233,1811.7 419.101,2143.57 427.999,2168.92C428.952,2184 432.411,2195.86 435.033,2208.92C527.662,2670.42 839.036,2820.89 1200,2816.93C1560.96,2820.89 1872.34,2670.42 1964.97,2208.92C1967.59,2195.86 1971.05,2184 1972,2168.92C1980.9,2143.58 1988.77,1811.71 1990.58,1730C1990.84,1718.47 1994.79,1700.55 1996.8,1695C2026.45,1613.07 2071.78,1551.12 2174.97,1562.91L2384.97,1663.35C2322.57,1666.24 2287.22,1706.86 2273.79,1778C2273.12,1781.56 2272.16,1796.98 2272.25,1801C2279.34,2092.57 2250.18,2330.1 2174.97,2498.92C2174.97,2498.92 2085.33,2670.68 2034.97,2748.92C2026.17,2762.58 2006.58,2784.17 2002,2790C1854.24,2978.23 1548.58,3106.27 1200,3106.27Z" style="fill:white;stroke:black;stroke-width:8.33px;stroke-linecap:round;stroke-miterlimit:1.5;"/>
        </g>
        <g transform="matrix(1,0,0,1,216.067,-109)">
            <g transform="matrix(0.091236,0.995829,-0.995829,0.091236,2162.31,1610.64)">
                <text x="198.684px" y="1990.06px" style="font-family:'Arial-Black', 'Arial Black', sans-serif;font-weight:900;font-size:210px;">S</text>
            </g>
            <g transform="matrix(0.1739,0.984763,-0.984763,0.1739,2290.17,1563.52)">
                <text x="213.178px" y="2146.78px" style="font-family:'Arial-Black', 'Arial Black', sans-serif;font-weight:900;font-size:210px;">p</text>
            </g>
            <g transform="matrix(0.268304,0.963334,-0.963334,0.268304,2380.89,1446.21)">
                <text x="238.417px" y="2290.42px" style="font-family:'Arial-Black', 'Arial Black', sans-serif;font-weight:900;font-size:210px;">e</text>
            </g>
            <g transform="matrix(0.384039,0.923317,-0.923317,0.384039,2415.63,1241.15)">
                <text x="277.578px" y="2431.07px" style="font-family:'Arial-Black', 'Arial Black', sans-serif;font-weight:900;font-size:210px;">c</text>
            </g>
            <g transform="matrix(0.483952,0.875094,-0.875094,0.483952,2417.68,1030.02)">
                <text x="335.506px" y="2564.91px" style="font-family:'Arial-Black', 'Arial Black', sans-serif;font-weight:900;font-size:210px;">i</text>
            </g>
            <g transform="matrix(0.59121,0.806517,-0.806517,0.59121,2274.43,777.261)">
                <text x="370.472px" y="2632.29px" style="font-family:'Arial-Black', 'Arial Black', sans-serif;font-weight:900;font-size:210px;">a</text>
            </g>
            <g transform="matrix(0.697706,0.716384,-0.716384,0.697706,2107.36,502.091)">
                <text x="458.746px" y="2748.09px" style="font-family:'Arial-Black', 'Arial Black', sans-serif;font-weight:900;font-size:210px;">l</text>
            </g>
            <g transform="matrix(0.858312,0.513128,-0.513128,0.858312,1544.7,112.896)">
                <text x="567.922px" y="2853.55px" style="font-family:'Arial-Black', 'Arial Black', sans-serif;font-weight:900;font-size:210px;">A</text>
            </g>
            <g transform="matrix(0.928359,0.371685,-0.371685,0.928359,1142.94,-55.2822)">
                <text x="714.876px" y="2937.23px" style="font-family:'Arial-Black', 'Arial Black', sans-serif;font-weight:900;font-size:210px;">f</text>
            </g>
            <g transform="matrix(0.960515,0.278227,-0.278227,0.960515,858.365,-105.528)">
                <text x="800.982px" y="2971.45px" style="font-family:'Arial-Black', 'Arial Black', sans-serif;font-weight:900;font-size:210px;">f</text>
            </g>
            <g transform="matrix(0.984042,0.177935,-0.177935,0.984042,547.297,-109.299)">
                <text x="883.012px" y="2996.63px" style="font-family:'Arial-Black', 'Arial Black', sans-serif;font-weight:900;font-size:210px;">a</text>
            </g>
            <g transform="matrix(0.995835,0.0911728,-0.0911728,0.995835,279.677,-81.0132)">
                <text x="1026.56px" y="3020.66px" style="font-family:'Arial-Black', 'Arial Black', sans-serif;font-weight:900;font-size:210px;">i</text>
            </g>
            <g transform="matrix(0.999656,0.0262147,-0.0262147,0.999656,79.7559,-27.8462)">
                <text x="1101.93px" y="3027.97px" style="font-family:'Arial-Black', 'Arial Black', sans-serif;font-weight:900;font-size:210px;">r</text>
            </g>
            <g transform="matrix(0.99906,-0.0433409,0.0433409,0.99906,-130.243,55.1212)">
                <text x="1206.09px" y="3031.23px" style="font-family:'Arial-Black', 'Arial Black', sans-serif;font-weight:900;font-size:210px;">s</text>
            </g>
            <g transform="matrix(0.974795,-0.223101,0.223101,0.974795,-637.588,391.873)">
                <text x="1415.56px" y="3017.77px" style="font-family:'Arial-Black', 'Arial Black', sans-serif;font-weight:900;font-size:210px;">D</text>
            </g>
            <g transform="matrix(0.927404,-0.37406,0.37406,0.927404,-999.737,807.44)">
                <text x="1580.36px" y="2979.37px" style="font-family:'Arial-Black', 'Arial Black', sans-serif;font-weight:900;font-size:210px;">e</text>
            </g>
            <g transform="matrix(0.845681,-0.533689,0.533689,0.845681,-1296.04,1367.19)">
                <text x="1716.09px" y="2924.67px" style="font-family:'Arial-Black', 'Arial Black', sans-serif;font-weight:900;font-size:210px;">p</text>
            </g>
            <g transform="matrix(0.731371,-0.681979,0.681979,0.731371,-1447.26,2019.07)">
                <text x="1839.32px" y="2846.65px" style="font-family:'Arial-Black', 'Arial Black', sans-serif;font-weight:900;font-size:210px;">a</text>
            </g>
            <g transform="matrix(0.606511,-0.795075,0.795075,0.606511,-1417.9,2626.71)">
                <text x="1944.79px" y="2745.84px" style="font-family:'Arial-Black', 'Arial Black', sans-serif;font-weight:900;font-size:210px;">r</text>
            </g>
            <g transform="matrix(0.509082,-0.860718,0.860718,0.509082,-1301.18,3035.81)">
                <text x="2010.73px" y="2658.57px" style="font-family:'Arial-Black', 'Arial Black', sans-serif;font-weight:900;font-size:210px;">t</text>
            </g>
            <g transform="matrix(0.366083,-0.930582,0.930582,0.366083,-1087.09,3553.48)">
                <text x="2064.69px" y="2574.66px" style="font-family:'Arial-Black', 'Arial Black', sans-serif;font-weight:900;font-size:210px;">m</text>
            </g>
            <g transform="matrix(0.229166,-0.973387,0.973387,0.229166,-659.415,3912.33)">
                <text x="2140.48px" y="2372.51px" style="font-family:'Arial-Black', 'Arial Black', sans-serif;font-weight:900;font-size:210px;">e</text>
            </g>
            <g transform="matrix(0.140831,-0.990034,0.990034,0.140831,-341.259,4068.34)">
                <text x="2173.38px" y="2230.79px" style="font-family:'Arial-Black', 'Arial Black', sans-serif;font-weight:900;font-size:210px;">n</text>
            </g>
            <g transform="matrix(0.0792518,-0.996855,0.996855,0.0792518,-60.5418,4106.91)">
                <text x="2192.92px" y="2086.23px" style="font-family:'Arial-Black', 'Arial Black', sans-serif;font-weight:900;font-size:210px;">t</text>
            </g>
        </g>
    </g>
</svg>
